<?xml version="1.0" encoding="UTF-8" standalone="no"?>
<svg
   xmlns:dc="http://purl.org/dc/elements/1.1/"
   xmlns:cc="http://creativecommons.org/ns#"
   xmlns:rdf="http://www.w3.org/1999/02/22-rdf-syntax-ns#"
   xmlns:svg="http://www.w3.org/2000/svg"
   xmlns="http://www.w3.org/2000/svg"
   version="1.1"
   id="svg4136"
   viewBox="0 0 640 480"
   height="480"
   width="640">
  <defs
     id="defs4138" />
  <metadata
     id="metadata4141">
    <rdf:RDF>
      <cc:Work
         rdf:about="">
        <dc:format>image/svg+xml</dc:format>
        <dc:type
           rdf:resource="http://purl.org/dc/dcmitype/StillImage" />
        <dc:title></dc:title>
      </cc:Work>
    </rdf:RDF>
  </metadata>
  <g
     transform="translate(0,-572.36216)"
     id="layer1">
    <g
       id="g4695">
      <rect
         y="572.36218"
         x="0"
         height="480"
         width="640"
         id="rect4729"
         style="opacity:1;fill:#f2f2f2;fill-opacity:1;stroke:none;stroke-width:10;stroke-linecap:round;stroke-linejoin:round;stroke-miterlimit:4;stroke-dasharray:none;stroke-dashoffset:0;stroke-opacity:1" />
      <g
         transform="matrix(0.66831134,0,0,0.66831134,219.7533,189.30384)"
         id="g4724">
        <path
           style="fill:#b3b3b3"
           d="m 34.238336,1017.4163 c 35.434019,-41.34996 45.270534,-52.53338 48.474821,-55.11254 7.27955,-5.85936 11.64385,-3.83646 24.863293,11.52441 5.57806,6.48166 10.51095,11.59041 10.96197,11.35279 0.45102,-0.23763 12.0624,-13.49651 25.80307,-29.46417 13.74067,-15.96767 26.19223,-30.00053 27.67014,-31.18414 3.3969,-2.72043 8.78265,-2.90463 12.679,-0.43362 2.50104,1.58611 85.30936,96.55017 85.30936,97.83227 0,0.237 -54,0.4309 -119.99999,0.4309 l -120,0 4.238336,-4.9459 z"
           id="path4703" />
        <circle
           style="opacity:1;fill:#b3b3b3;fill-opacity:1;stroke:none;stroke-width:1.5;stroke-linecap:round;stroke-miterlimit:4;stroke-dasharray:none;stroke-dashoffset:0;stroke-opacity:1"
           id="path4709"
           cx="55"
           cy="907.36218"
           r="25" />
        <path
           style="color:#000000;font-style:normal;font-variant:normal;font-weight:normal;font-stretch:normal;font-size:medium;line-height:normal;font-family:sans-serif;text-indent:0;text-align:start;text-decoration:none;text-decoration-line:none;text-decoration-style:solid;text-decoration-color:#000000;letter-spacing:normal;word-spacing:normal;text-transform:none;direction:ltr;block-progression:tb;writing-mode:lr-tb;baseline-shift:baseline;text-anchor:start;white-space:normal;clip-rule:nonzero;display:inline;overflow:visible;visibility:visible;opacity:1;isolation:auto;mix-blend-mode:normal;color-interpolation:sRGB;color-interpolation-filters:linearRGB;solid-color:#000000;solid-opacity:1;fill:#b3b3b3;fill-opacity:1;fill-rule:nonzero;stroke:none;stroke-width:10;stroke-linecap:round;stroke-linejoin:round;stroke-miterlimit:4;stroke-dasharray:none;stroke-dashoffset:0;stroke-opacity:1;color-rendering:auto;image-rendering:auto;shape-rendering:auto;text-rendering:auto;enable-background:accumulate"
           d="m 5.3691406,852.73047 a 5.0005,5.0005 0 0 0 -4.99999998,5 l 0,189.26173 a 5.0005,5.0005 0 0 0 4.99999998,5 l 289.2617194,0 a 5.0005,5.0005 0 0 0 5,-5 l 0,-189.26173 a 5.0005,5.0005 0 0 0 -5,-5 l -289.2617194,0 z m 5.0000004,10 279.261719,0 0,179.26173 -279.261719,0 0,-179.26173 z"
           id="rect4711" />
      </g>
    </g>
  </g>
</svg>
