<?xml version="1.0" encoding="UTF-8" standalone="no"?>
<!-- Created with Inkscape (http://www.inkscape.org/) -->

<svg
   xmlns:dc="http://purl.org/dc/elements/1.1/"
   xmlns:cc="http://creativecommons.org/ns#"
   xmlns:rdf="http://www.w3.org/1999/02/22-rdf-syntax-ns#"
   xmlns:svg="http://www.w3.org/2000/svg"
   xmlns="http://www.w3.org/2000/svg"
   xmlns:sodipodi="http://sodipodi.sourceforge.net/DTD/sodipodi-0.dtd"
   xmlns:inkscape="http://www.inkscape.org/namespaces/inkscape"
   width="90"
   height="90"
   viewBox="0 0 23.812499 23.812501"
   version="1.1"
   id="svg8"
   sodipodi:docname="logo-default.svg"
   inkscape:version="0.91 r13725">
  <defs
     id="defs2" />
  <sodipodi:namedview
     id="base"
     pagecolor="#ffffff"
     bordercolor="#666666"
     borderopacity="1.0"
     inkscape:pageopacity="0.0"
     inkscape:pageshadow="2"
     inkscape:zoom="3.959798"
     inkscape:cx="-78.920081"
     inkscape:cy="26.693646"
     inkscape:document-units="mm"
     inkscape:current-layer="layer1"
     showgrid="false"
     units="px"
     inkscape:window-width="3759"
     inkscape:window-height="2136"
     inkscape:window-x="81"
     inkscape:window-y="24"
     inkscape:window-maximized="1" />
  <metadata
     id="metadata5">
    <rdf:RDF>
      <cc:Work
         rdf:about="">
        <dc:format>image/svg+xml</dc:format>
        <dc:type
           rdf:resource="http://purl.org/dc/dcmitype/StillImage" />
        <dc:title />
      </cc:Work>
    </rdf:RDF>
  </metadata>
  <g
     inkscape:label="Layer 1"
     inkscape:groupmode="layer"
     id="layer1"
     transform="translate(0,-273.18748)">
    <circle
       style="opacity:1;fill:#000000;fill-opacity:1;stroke:none;stroke-width:3.96875048;stroke-linecap:round;stroke-miterlimit:4;stroke-dasharray:none;stroke-opacity:1"
       id="path815"
       cx="11.90625"
       cy="285.09372"
       r="11.90625" />
    <g
       transform="scale(0.94463782,1.0586068)"
       style="font-style:normal;font-weight:normal;font-size:4.83450556px;line-height:1.25;font-family:sans-serif;letter-spacing:0px;word-spacing:0px;opacity:0.5;fill:#000000;fill-opacity:1;stroke:none;stroke-width:0.26458332"
       id="text819">
      <path
         d="m 4.0498359,270.07288 -1.8612846,-2.32056 -0.6526583,0 0,3.38415 0.6768308,0 0,-2.32056 1.8612847,2.32056 0.6526582,0 0,-3.38415 -0.6768308,0 0,2.32056 z"
         style="font-style:normal;font-variant:normal;font-weight:normal;font-stretch:normal;font-family:'Squares Bold';-inkscape-font-specification:'Squares Bold, ';fill:#cccccc;stroke-width:0.26458332"
         id="path4138" />
      <path
         d="m 6.4674663,268.28412 1.329489,0 0.3142429,0.29007 0,1.74042 -0.3142429,0.29007 -1.329489,0 -0.3142429,-0.29007 0,-1.74042 0.3142429,-0.29007 z m -0.3142429,-0.58014 -0.6768308,0.62848 0,2.22387 0.6768308,0.62849 1.9579748,0 0.6768307,-0.62849 0,-2.22387 -0.6768307,-0.62848 -1.9579748,0 z"
         style="font-style:normal;font-variant:normal;font-weight:normal;font-stretch:normal;font-family:'Squares Bold';-inkscape-font-specification:'Squares Bold, ';fill:#cccccc;stroke-width:0.26458332"
         id="path4140" />
      <path
         d="m 9.5336004,267.75232 0,3.38415 2.7556686,0 0,-0.58014 -2.078838,0 0,-2.80401 -0.6768306,0 z"
         style="font-style:normal;font-variant:normal;font-weight:normal;font-stretch:normal;font-family:'Squares Bold';-inkscape-font-specification:'Squares Bold, ';fill:#ffffff;stroke-width:0.26458332"
         id="path4142" />
      <path
         d="m 13.672013,268.28412 1.329489,0 0.314243,0.29007 0,1.74042 -0.314243,0.29007 -1.329489,0 -0.314243,-0.29007 0,-1.74042 0.314243,-0.29007 z m -0.314243,-0.58014 -0.676831,0.62848 0,2.22387 0.676831,0.62849 1.957975,0 0.67683,-0.62849 0,-2.22387 -0.67683,-0.62848 -1.957975,0 z"
         style="font-style:normal;font-variant:normal;font-weight:normal;font-stretch:normal;font-family:'Squares Bold';-inkscape-font-specification:'Squares Bold, ';fill:#ffffff;stroke-width:0.26458332"
         id="path4144" />
      <path
         d="m 19.324607,270.26626 -0.314243,0.29007 -1.353662,0 -0.314242,-0.29007 0,-1.64373 0.314242,-0.29007 1.957975,0 0,-0.58014 -2.272217,0 -0.676831,0.62849 0,2.12718 0.676831,0.62848 1.982147,0 0.676831,-0.62848 0,-1.35366 -1.595387,0 0,0.58014 0.918556,0 0,0.53179 z"
         style="font-style:normal;font-variant:normal;font-weight:normal;font-stretch:normal;font-family:'Squares Bold';-inkscape-font-specification:'Squares Bold, ';fill:#ffffff;stroke-width:0.26458332"
         id="path4146" />
      <path
         d="m 21.622507,268.28412 1.32949,0 0.314242,0.29007 0,1.74042 -0.314242,0.29007 -1.32949,0 -0.314242,-0.29007 0,-1.74042 0.314242,-0.29007 z m -0.314242,-0.58014 -0.676831,0.62848 0,2.22387 0.676831,0.62849 1.957974,0 0.676831,-0.62849 0,-2.22387 -0.676831,-0.62848 -1.957974,0 z"
         style="font-style:normal;font-variant:normal;font-weight:normal;font-stretch:normal;font-family:'Squares Bold';-inkscape-font-specification:'Squares Bold, ';fill:#ffffff;stroke-width:0.26458332"
         id="path4148" />
    </g>
  </g>
</svg>
